{"title":"Werewolf The Beast Among Us (2012).Unrated.720p.[Dual Audio] [Hi","uid":7765007,"size":837681843,"categoryP":"video","categoryS":"hd___movies","magnet":"?xt=urn:btih:fd79d83e77d958845d0bd7162e40742a247c6c6f&amp;dn=Werewolf+The+Beast+Among+Us+%282012%29.Unrated.720p.%5BDual+Audio%5D+%5BHi&amp;tr=udp%3A%2F%2Ftracker.openbittorrent.com%3A80&amp;tr=udp%3A%2F%2Fopen.demonii.com%3A1337&amp;tr=udp%3A%2F%2Ftracker.coppersurfer.tk%3A6969&amp;tr=udp%3A%2F%2Fexodus.desync.com%3A6969","seeders":1,"leechers":2,"uploader":"TeamExD","files":4,"time":1351348460,"description":"Format                                   : Matroska\nFormat version                           : Version 2\nFile size                                : 782 MiB\nDuration                                 : 1h 33mn\nOverall bit rate                         : 1 171 Kbps\nMovie name                               : Werewolf The Beast Among Us (2012).Unrated.720p.x264.[Dual Audio] [Hindi+English].by K@rtik [ExD Exclusive]\n\nCodec ID                                 : V_MPEG4/ISO/AVC\nDuration                                 : 1h 33mn\nBit rate                                 : 916 Kbps\nWidth                                    : 1 280 pixels\nHeight                                   : 720 pixels\nDisplay aspect ratio                     : 16:9\nFrame rate mode                          : Constant\nFrame rate                               : 23.976 fps\nColor space                              : YUV\nChroma subsampling                       : 4:2:0\nBit depth                                : 8 bits\nScan type                                : Progressive\nBits/(Pixel*Frame)                       : 0.041\nStream size                              : 596 MiB (76%)\n\nCodec ID                                 : A_AC3\nDuration                                 : 1h 33mn\nBit rate mode                            : Constant\nBit rate                                 : 128 Kbps\nChannel(s)                               : 6 channels\nChannel positions                        : Front: L C R, Side: L R, LFE\nSampling rate                            : 48.0 KHz\nBit depth                                : 16 bits\nCompression mode                         : Lossy\nStream size                              : 85.5 MiB (11%)\nTitle                                    : K@rtik\nLanguage                                 : English\n\nCodec ID                                 : A_AC3\nDuration                                 : 1h 33mn\nBit rate mode                            : Constant\nBit rate                                 : 128 Kbps\nChannel(s)                               : 2 channels\nChannel positions                        : Front: L R\nSampling rate                            : 44.1 KHz\nBit depth                                : 16 bits\nCompression mode                         : Lossy\nDelay relative to video                  : 500ms\nStream size                              : 85.5 MiB (11%)\nTitle                                    : K@rtik\nLanguage                                 : Hindi\n &lt;a href=&quot;\nhttp://img853.imageshack.us/img853/1295/97651825.png&quot; rel=&quot;nofollow&quot; target=&quot;_NEW&quot;&gt;\nhttp://img853.imageshack.us/img853/1295/97651825.png&lt;/a&gt; &lt;a href=&quot;\nhttp://img707.imageshack.us/img707/8238/82724694.png&quot; rel=&quot;nofollow&quot; target=&quot;_NEW&quot;&gt;\nhttp://img707.imageshack.us/img707/8238/82724694.png&lt;/a&gt; &lt;a href=&quot;\nhttp://img846.imageshack.us/img846/4473/91698530.png&quot; rel=&quot;nofollow&quot; target=&quot;_NEW&quot;&gt;\nhttp://img846.imageshack.us/img846/4473/91698530.png&lt;/a&gt; &lt;a href=&quot;\nhttp://img837.imageshack.us/img837/641/10058122.png&quot; rel=&quot;nofollow&quot; target=&quot;_NEW&quot;&gt;\nhttp://img837.imageshack.us/img837/641/10058122.png&lt;/a&gt; &lt;a href=&quot;\nhttp://img715.imageshack.us/img715/9199/36748453.png&quot; rel=&quot;nofollow&quot; target=&quot;_NEW&quot;&gt;\nhttp://img715.imageshack.us/img715/9199/36748453.png&lt;/a&gt; &lt;a href=&quot;\nhttp://img87.imageshack.us/img87/5599/52727474.png&quot; rel=&quot;nofollow&quot; target=&quot;_NEW&quot;&gt;\nhttp://img87.imageshack.us/img87/5599/52727474.png&lt;/a&gt; &lt;a href=&quot;\nhttp://img26.imageshack.us/img26/9525/78599721.png&quot; rel=&quot;nofollow&quot; target=&quot;_NEW&quot;&gt;\nhttp://img26.imageshack.us/img26/9525/78599721.png&lt;/a&gt; &lt;a href=&quot;\nhttp://img26.imageshack.us/img26/6058/13467327.png&quot; rel=&quot;nofollow&quot; target=&quot;_NEW&quot;&gt;\nhttp://img26.imageshack.us/img26/6058/13467327.png&lt;/a&gt; &lt;a href=&quot;\nhttp://img528.imageshack.us/img528/4074/59037181.png&quot; rel=&quot;nofollow&quot; target=&quot;_NEW&quot;&gt;\nhttp://img528.imageshack.us/img528/4074/59037181.png&lt;/a&gt; &lt;a href=&quot;\nhttp://img16.imageshack.us/img16/6001/92991137.png&quot; rel=&quot;nofollow&quot; target=&quot;_NEW&quot;&gt;\nhttp://img16.imageshack.us/img16/6001/92991137.png&lt;/a&gt; &lt;a href=&quot;\nhttp://img690.imageshack.us/img690/5521/80551624.png&quot; rel=&quot;nofollow&quot; target=&quot;_NEW&quot;&gt;\nhttp://img690.imageshack.us/img690/5521/80551624.png&lt;/a&gt;","torrent":{"xt":"urn:btih:fd79d83e77d958845d0bd7162e40742a247c6c6f","amp;dn":"Werewolf+The+Beast+Among+Us+%282012%29.Unrated.720p.%5BDual+Audio%5D+%5BHi","amp;tr":["udp%3A%2F%2Ftracker.openbittorrent.com%3A80","udp%3A%2F%2Fopen.demonii.com%3A1337","udp%3A%2F%2Ftracker.coppersurfer.tk%3A6969","udp%3A%2F%2Fexodus.desync.com%3A6969"],"infoHash":"fd79d83e77d958845d0bd7162e40742a247c6c6f","infoHashBuffer":{"type":"Buffer","data":[253,121,216,62,119,217,88,132,93,11,215,22,46,64,116,42,36,124,108,111]},"announce":[],"urlList":[]}}